<svg width="21" height="21" viewBox="0 0 21 21" fill="none" xmlns="http://www.w3.org/2000/svg">
<g clip-path="url(#clip0_53_10026)">
<path d="M16.4493 2.03339H18.208C18.5189 2.03339 18.8171 2.15691 19.037 2.37678C19.2569 2.59665 19.3804 2.89486 19.3804 3.2058V6.13683M16.4493 2.03339H5.89761C4.96478 2.03339 4.07016 2.40395 3.41055 3.06356C2.75094 3.72317 2.38037 4.6178 2.38037 5.55063V15.5161C2.38037 16.449 2.75094 17.3436 3.41055 18.0032C4.07016 18.6628 4.96478 19.0334 5.89761 19.0334H16.4493M16.4493 2.03339V6.13683M19.3804 6.13683H16.4493M19.3804 6.13683V10.5334M16.4493 19.0334H18.208C18.5189 19.0334 18.8171 18.9099 19.037 18.69C19.2569 18.4701 19.3804 18.1719 19.3804 17.861V14.9299M16.4493 19.0334V14.9299M16.4493 6.13683V10.5334M19.3804 14.9299H16.4493M19.3804 14.9299V10.5334M16.4493 14.9299V10.5334M16.4493 10.5334H19.3804M7.07003 14.3437C7.07003 14.3437 7.86141 12.5851 9.70796 12.5851C11.5545 12.5851 12.3459 14.3437 12.3459 14.3437M11.1735 8.18856C11.1735 8.57724 11.0191 8.95 10.7442 9.22484C10.4694 9.49967 10.0966 9.65408 9.70796 9.65408C9.31928 9.65408 8.94652 9.49967 8.67168 9.22484C8.39684 8.95 8.24244 8.57724 8.24244 8.18856C8.24244 7.79988 8.39684 7.42712 8.67168 7.15228C8.94652 6.87744 9.31928 6.72304 9.70796 6.72304C10.0966 6.72304 10.4694 6.87744 10.7442 7.15228C11.0191 7.42712 11.1735 7.79988 11.1735 8.18856Z" stroke="#595667" stroke-width="1.5" stroke-linecap="round" stroke-linejoin="round"/>
</g>
<defs>
<clipPath id="clip0_53_10026">
<rect width="20" height="20" fill="white" transform="translate(0.880371 0.533386)"/>
</clipPath>
</defs>
</svg>
