<svg width="22" height="23" viewBox="0 0 22 23" fill="none" xmlns="http://www.w3.org/2000/svg">
<path fill-rule="evenodd" clip-rule="evenodd" d="M11 16.8C12.1046 16.8 13 17.6954 13 18.8C13 19.9046 12.1046 20.8 11 20.8C9.89543 20.8 9 19.9046 9 18.8C9 17.6954 9.89543 16.8 11 16.8ZM11 9.79999C12.1046 9.79999 13 10.6954 13 11.8C13 12.9046 12.1046 13.8 11 13.8C9.89543 13.8 9 12.9046 9 11.8C9 10.6954 9.89543 9.79999 11 9.79999ZM11 2.79999C12.1046 2.79999 13 3.69542 13 4.79999C13 5.90456 12.1046 6.79999 11 6.79999C9.89543 6.79999 9 5.90456 9 4.79999C9 3.69542 9.89543 2.79999 11 2.79999Z" fill="#DDDFE3"/>
</svg>
