<svg width="22" height="22" viewBox="0 0 22 22" fill="none" xmlns="http://www.w3.org/2000/svg">
<path fill-rule="evenodd" clip-rule="evenodd" d="M19 4C19 2.89543 18.1046 2 17 2H5C3.89543 2 3 2.89543 3 4V18C3 19.1046 3.89543 20 5 20H17C18.1046 20 19 19.1046 19 18V4ZM5.5 3.5H16.5L16.6166 3.50673C17.114 3.56449 17.5 3.98716 17.5 4.5V17.5L17.4933 17.6166C17.4355 18.114 17.0128 18.5 16.5 18.5H5.5L5.38338 18.4933C4.88604 18.4355 4.5 18.0128 4.5 17.5V4.5L4.50673 4.38338C4.56449 3.88604 4.98716 3.5 5.5 3.5ZM11.7552 6.75714C11.7552 6.34293 11.4194 6.00714 11.0052 6.00714C10.591 6.00714 10.2552 6.34293 10.2552 6.75714L10.2544 10.4336L9.76777 9.94732C9.47488 9.65442 9 9.65442 8.70711 9.94732C8.41422 10.2402 8.41422 10.7151 8.70711 11.008L10.3894 12.6933C10.5249 12.8877 10.7502 13.015 11.0052 13.015C11.268 13.015 11.4992 12.8799 11.6331 12.6753L13.2981 11.008C13.591 10.7151 13.591 10.2402 13.2981 9.94732C13.0052 9.65442 12.5303 9.65442 12.2374 9.94732L11.7544 10.4286L11.7552 6.75714ZM14.2521 14H7.75396C7.33925 14 7.00306 14.3358 7.00306 14.75C7.00306 15.1642 7.33925 15.5 7.75396 15.5H14.2521C14.6669 15.5 15.0031 15.1642 15.0031 14.75C15.0031 14.3358 14.6669 14 14.2521 14Z" fill="#828D9E"/>
</svg>
