<svg width="21" height="21" viewBox="0 0 21 21" fill="none" xmlns="http://www.w3.org/2000/svg">
<g clip-path="url(#clip0_53_10062)">
<path d="M2.38037 10.2403H19.3804V17.861C19.3804 18.5085 18.8555 19.0334 18.208 19.0334H3.55278C2.90527 19.0334 2.38037 18.5085 2.38037 17.861V10.2403Z" stroke="#595667" stroke-width="1.5" stroke-linecap="round" stroke-linejoin="round"/>
<path d="M2.38037 12.8782V10.4241C2.38037 10.3023 2.39934 10.1812 2.43661 10.0654L4.75677 2.84703C4.91262 2.36218 5.36366 2.03339 5.87295 2.03339H15.8878C16.397 2.03339 16.8481 2.36218 17.004 2.84703L19.3241 10.0654C19.3614 10.1812 19.3804 10.3023 19.3804 10.4241V12.8782" stroke="#595667" stroke-width="1.5" stroke-linecap="round" stroke-linejoin="round"/>
<path d="M5.89722 14.3438H7.65584" stroke="#595667" stroke-width="1.5" stroke-linecap="round" stroke-linejoin="round"/>
<path d="M11.7598 14.3438H15.8632" stroke="#595667" stroke-width="1.5" stroke-linecap="round" stroke-linejoin="round"/>
</g>
<defs>
<clipPath id="clip0_53_10062">
<rect width="20" height="20" fill="white" transform="translate(0.880371 0.533386)"/>
</clipPath>
</defs>
</svg>
