<svg width="23" height="22" viewBox="0 0 23 22" fill="none" xmlns="http://www.w3.org/2000/svg">
<path fill-rule="evenodd" clip-rule="evenodd" d="M15.6924 2C16.2283 2 16.7417 2.21503 17.1177 2.59689L19.9252 5.44872C20.2936 5.82286 20.5 6.32682 20.5 6.85183V18C20.5 19.1046 19.6046 20 18.5 20H4.5C3.39543 20 2.5 19.1046 2.5 18V4C2.5 2.89543 3.39543 2 4.5 2H15.6924ZM7.5 3.5H5C4.48716 3.5 4.06449 3.88604 4.00673 4.38338L4 4.5V17.5C4 18.0128 4.38604 18.4355 4.88338 18.4933L5 18.5H5.899L5.9 12C5.9 11.4477 6.34772 11 6.9 11H16.1C16.6523 11 17.1 11.4477 17.1 12L17.099 18.5H18C18.5128 18.5 18.9355 18.114 18.9933 17.6166L19 17.5V7.46259C19 7.24465 18.9288 7.03393 18.7993 6.86159L18.7146 6.76304L15.8143 3.80045C15.7237 3.7079 15.617 3.6348 15.5006 3.58389L15.5 7C15.5 7.55228 15.0523 8 14.5 8H8.5C7.94772 8 7.5 7.55228 7.5 7V3.5ZM15 12.5H8C7.75454 12.5 7.55039 12.6769 7.50806 12.9101L7.5 13V18.5H15.5V13C15.5 12.7239 15.2761 12.5 15 12.5ZM14 3.5H13V4.5H11.5V3.5H9V6C9 6.24546 9.17688 6.44961 9.41012 6.49194L9.5 6.5H13.5C13.7455 6.5 13.9496 6.32312 13.9919 6.08988L14 6V3.5Z" fill="white"/>
</svg>
