<svg width="21" height="21" viewBox="0 0 21 21" fill="none" xmlns="http://www.w3.org/2000/svg">
<g clip-path="url(#clip0_53_9764)">
<path d="M3.40174 14.0069L4.69233 14.209C5.64505 14.3582 6.32544 15.2308 6.25527 16.2139L6.16018 17.5463C6.13249 17.9345 6.33928 18.2999 6.68178 18.469L7.63634 18.9392C7.97883 19.1083 8.38781 19.045 8.66756 18.7816L9.62671 17.875C10.3339 17.2064 11.4251 17.2064 12.1331 17.875L13.0922 18.7816C13.372 19.0461 13.7801 19.1083 14.1235 18.9392L15.0798 18.4681C15.4215 18.2999 15.6274 17.9354 15.5997 17.5483L15.5045 16.2139C15.4344 15.2308 16.1147 14.3582 17.0674 14.209L18.358 14.0069C18.7338 13.9484 19.0366 13.6603 19.1215 13.2807L19.3569 12.2249C19.4419 11.8453 19.2914 11.4515 18.9775 11.2324L17.9002 10.4778C17.1053 9.92069 16.8625 8.8328 17.3426 7.97813L17.9934 6.82034C18.1826 6.4832 18.1513 6.06108 17.914 5.757L17.254 4.90991C17.0167 4.60582 16.6216 4.48023 16.2579 4.59449L15.0097 4.98546C14.0875 5.27442 13.1043 4.78997 12.7498 3.873L12.2716 2.63306C12.1312 2.27043 11.7888 2.03245 11.4075 2.03339L10.3495 2.03623C9.96823 2.03716 9.62671 2.27704 9.48825 2.64062L9.02198 3.86639C8.67119 4.78903 7.68342 5.27726 6.7584 4.9864L5.45858 4.57844C5.09392 4.46323 4.69695 4.58977 4.4597 4.89574L3.80424 5.74377C3.56699 6.05069 3.53837 6.47377 3.73132 6.81089L4.39692 7.97151C4.88713 8.82706 4.6471 9.92538 3.84763 10.4854L2.78321 11.2314C2.46933 11.4515 2.31886 11.8453 2.40379 12.224L2.6392 13.2798C2.72321 13.6603 3.02601 13.9484 3.40174 14.0069Z" stroke="#595667" stroke-width="1.5" stroke-linecap="round" stroke-linejoin="round"/>
<path d="M12.7456 8.66796C13.7755 9.69804 13.7755 11.3687 12.7456 12.3988C11.7155 13.4288 10.0448 13.4288 9.0147 12.3988C7.98468 11.3687 7.98468 9.69804 9.0147 8.66796C10.0448 7.63794 11.7155 7.63794 12.7456 8.66796Z" stroke="#595667" stroke-width="1.5" stroke-linecap="round" stroke-linejoin="round"/>
</g>
<defs>
<clipPath id="clip0_53_9764">
<rect width="20" height="20" fill="white" transform="translate(0.880371 0.533386)"/>
</clipPath>
</defs>
</svg>
