<svg width="145" height="39" viewBox="0 0 145 39" fill="none" xmlns="http://www.w3.org/2000/svg">
<mask id="path-1-inside-1_253_475" fill="white">
<path d="M5.84383 20.2714C5.4533 19.8809 5.4533 19.2478 5.84383 18.8572L7.73155 16.9695C10.0747 14.6264 13.8737 14.6264 16.2168 16.9695L18.1046 18.8572C18.4951 19.2478 18.4951 19.8809 18.1046 20.2714L16.2168 22.1592C13.8737 24.5023 10.0747 24.5023 7.73155 22.1592L5.84383 20.2714Z"/>
</mask>
<path d="M5.84383 20.2714C5.4533 19.8809 5.4533 19.2478 5.84383 18.8572L7.73155 16.9695C10.0747 14.6264 13.8737 14.6264 16.2168 16.9695L18.1046 18.8572C18.4951 19.2478 18.4951 19.8809 18.1046 20.2714L16.2168 22.1592C13.8737 24.5023 10.0747 24.5023 7.73155 22.1592L5.84383 20.2714Z" stroke="#3A3845" stroke-width="5" mask="url(#path-1-inside-1_253_475)"/>
<mask id="path-2-inside-2_253_475" fill="white">
<path d="M21.932 20.2714C21.5414 19.8809 21.5414 19.2478 21.932 18.8572L23.8197 16.9695C26.1628 14.6264 29.9618 14.6264 32.305 16.9695L34.1927 18.8572C34.5832 19.2478 34.5832 19.8809 34.1927 20.2714L32.305 22.1592C29.9618 24.5023 26.1628 24.5023 23.8197 22.1592L21.932 20.2714Z"/>
</mask>
<path d="M21.932 20.2714C21.5414 19.8809 21.5414 19.2478 21.932 18.8572L23.8197 16.9695C26.1628 14.6264 29.9618 14.6264 32.305 16.9695L34.1927 18.8572C34.5832 19.2478 34.5832 19.8809 34.1927 20.2714L32.305 22.1592C29.9618 24.5023 26.1628 24.5023 23.8197 22.1592L21.932 20.2714Z" stroke="#3A3845" stroke-width="5" mask="url(#path-2-inside-2_253_475)"/>
<mask id="path-3-inside-3_253_475" fill="white">
<path d="M19.3112 5.38992C19.7017 4.9994 20.3349 4.9994 20.7254 5.38992L22.6131 7.27765C24.9563 9.62079 24.9563 13.4198 22.6131 15.7629L20.7254 17.6507C20.3349 18.0412 19.7017 18.0412 19.3112 17.6507L17.4235 15.7629C15.0803 13.4198 15.0803 9.62079 17.4235 7.27765L19.3112 5.38992Z"/>
</mask>
<path d="M19.3112 5.38992C19.7017 4.9994 20.3349 4.9994 20.7254 5.38992L22.6131 7.27765C24.9563 9.62079 24.9563 13.4198 22.6131 15.7629L20.7254 17.6507C20.3349 18.0412 19.7017 18.0412 19.3112 17.6507L17.4235 15.7629C15.0803 13.4198 15.0803 9.62079 17.4235 7.27765L19.3112 5.38992Z" stroke="#3A3845" stroke-width="5" mask="url(#path-3-inside-3_253_475)"/>
<mask id="path-4-inside-4_253_475" fill="white">
<path d="M19.2055 20.6789C19.596 20.2883 20.2292 20.2883 20.6197 20.6789L22.5074 22.5666C24.8506 24.9097 24.8506 28.7087 22.5074 31.0519L20.6197 32.9396C20.2292 33.3301 19.596 33.3301 19.2055 32.9396L17.3178 31.0519C14.9746 28.7087 14.9746 24.9097 17.3178 22.5666L19.2055 20.6789Z"/>
</mask>
<path d="M19.2055 20.6789C19.596 20.2883 20.2292 20.2883 20.6197 20.6789L22.5074 22.5666C24.8506 24.9097 24.8506 28.7087 22.5074 31.0519L20.6197 32.9396C20.2292 33.3301 19.596 33.3301 19.2055 32.9396L17.3178 31.0519C14.9746 28.7087 14.9746 24.9097 17.3178 22.5666L19.2055 20.6789Z" stroke="#3A3845" stroke-width="5" mask="url(#path-4-inside-4_253_475)"/>
<path d="M39.0527 19.5C39.0527 20.1211 38.7879 20.6878 38.296 21.464C38.2241 21.5774 38.1445 21.6988 38.0602 21.8274C37.6294 22.4843 37.0748 23.33 36.7901 24.2701C36.4978 25.2354 36.394 26.3123 36.3058 27.2269C36.2821 27.4734 36.2594 27.7081 36.2346 27.9256C36.1053 29.0563 35.9149 29.8733 35.4696 30.4829C35.0281 31.0874 34.3054 31.5224 33.2718 31.9964C33.076 32.0862 32.8638 32.1792 32.6413 32.2766C31.803 32.6438 30.8178 33.0753 30.0087 33.6457C29.2008 34.2152 28.6036 35.0149 28.1543 35.6166C28.0799 35.7162 28.0096 35.8104 27.943 35.8973C27.4139 36.5873 27.0288 36.9723 26.5272 37.1505C25.7217 37.4367 24.8356 37.4556 23.75 37.3655C23.4486 37.3404 23.1161 37.3044 22.7643 37.2664C21.9482 37.178 21.0281 37.0784 20.1514 37.0784C19.2746 37.0784 18.3546 37.178 17.5384 37.2664C17.1866 37.3044 16.8541 37.3404 16.5527 37.3655C15.4671 37.4556 14.581 37.4367 13.7755 37.1505C13.0443 36.8907 12.4456 36.4271 11.7765 35.7913C11.6146 35.6374 11.4403 35.4642 11.2553 35.2804C10.7359 34.7642 10.132 34.1641 9.47816 33.6701C8.82829 33.179 8.05784 32.7492 7.38336 32.3729C7.15839 32.2474 6.94409 32.1278 6.74851 32.014C5.89162 31.515 5.25293 31.0576 4.83309 30.4829C4.35038 29.8221 4.08128 28.9451 3.85943 27.8248C3.80122 27.5308 3.74489 27.2079 3.68585 26.8694C3.53938 26.0298 3.37627 25.0948 3.12656 24.2701C2.8728 23.4321 2.4545 22.6548 2.11476 22.0236C2.02633 21.8593 1.94323 21.7048 1.86974 21.5618C1.48322 20.8096 1.25 20.1989 1.25 19.5C1.25 18.836 1.54841 18.094 2.05534 17.1378C2.14617 16.9665 2.24671 16.7838 2.35197 16.5925C2.76679 15.8386 3.25509 14.9512 3.5126 14.1008C3.7982 13.1576 3.90448 12.1979 3.99183 11.4091C4.01667 11.1848 4.03998 10.9743 4.06545 10.7819C4.18836 9.85357 4.36653 9.15584 4.83309 8.51713C5.23902 7.96142 5.85582 7.54447 6.71253 7.08281C6.88412 6.99034 7.07101 6.89366 7.26762 6.79196C7.96502 6.4312 8.78478 6.00714 9.47816 5.48316C10.1692 4.96096 10.796 4.30582 11.3301 3.74755C11.4964 3.57373 11.6537 3.4093 11.8012 3.2612C12.4781 2.58143 13.0677 2.10096 13.7755 1.84951C14.581 1.56335 15.4671 1.54439 16.5527 1.63453C16.8541 1.65956 17.1867 1.69556 17.5385 1.73364C18.3546 1.822 19.2746 1.9216 20.1514 1.9216C21.0281 1.9216 21.9481 1.822 22.7642 1.73364C23.1161 1.69556 23.4486 1.65956 23.75 1.63453C24.8356 1.54439 25.7217 1.56334 26.5272 1.84951C27.0049 2.01918 27.3854 2.41336 27.9241 3.15401C27.9874 3.24109 28.0543 3.33538 28.1249 3.43499C28.5757 4.0708 29.1805 4.92372 30.0087 5.50756C30.8538 6.10327 31.9364 6.54433 32.8346 6.91023C33.0442 6.99564 33.2438 7.07696 33.428 7.15519C34.5627 7.63716 35.1621 8.01362 35.4066 8.42195L36.479 7.7798L35.4066 8.42195C35.7585 9.00967 35.9434 9.7542 36.1163 10.7624C36.148 10.9477 36.1795 11.1432 36.2123 11.3467C36.3467 12.1821 36.5029 13.1522 36.7901 14.1008C37.0476 14.9512 37.5359 15.8387 37.9508 16.5926C38.056 16.7838 38.1566 16.9665 38.2474 17.1378C38.7543 18.094 39.0527 18.836 39.0527 19.5Z" stroke="#3A3845" stroke-width="2.5"/>
<path d="M72.2271 9.23997C72.3449 9.23996 72.458 9.29595 72.5417 9.39574C72.6254 9.49554 72.673 9.63107 72.6741 9.77284V29.0531C72.6741 29.1949 72.6275 29.3309 72.5446 29.4316C72.4616 29.5324 72.349 29.5896 72.2311 29.5908H70.0486C69.9308 29.5896 69.8181 29.5324 69.7352 29.4316C69.6522 29.3309 69.6057 29.1949 69.6057 29.0531V16.5113C69.4339 16.6792 69.2567 16.8407 69.0741 16.9957C68.5547 17.4317 68.0272 17.7998 67.5158 18.1583C67.0044 18.5168 66.6661 18.7978 66.2635 19.0836C65.5096 19.6074 64.8532 20.312 64.3351 21.1536C63.8169 21.9953 63.4481 22.956 63.2514 23.9763C63.2294 24.095 63.1742 24.2011 63.0951 24.2769C63.016 24.3527 62.9177 24.3936 62.8165 24.3929H60.7347C60.6336 24.3936 60.5353 24.3527 60.4562 24.2769C60.3771 24.2011 60.3219 24.095 60.2998 23.9763C60.1032 22.9548 59.734 21.9928 59.2151 21.1502C58.6962 20.3077 58.0388 19.6026 57.2838 19.0787C56.8811 18.7929 56.4784 18.478 56.0315 18.1535C55.5845 17.8289 54.9925 17.4268 54.4731 16.9908C54.2905 16.839 54.1134 16.6776 53.9416 16.5064V29.0531C53.9416 29.1949 53.895 29.3309 53.8121 29.4316C53.7291 29.5324 53.6165 29.5896 53.4986 29.5908H51.3201C51.2023 29.5896 51.0896 29.5324 51.0067 29.4316C50.9237 29.3309 50.8772 29.1949 50.8772 29.0531V9.77768C50.8772 9.63507 50.9243 9.4983 51.0081 9.39746C51.0919 9.29662 51.2056 9.23997 51.3242 9.23997H53.4785C53.5834 9.24171 53.6845 9.2878 53.764 9.37017C53.8435 9.45253 53.8964 9.56593 53.9134 9.69049C54.0342 10.6303 54.4932 12.8247 56.1724 14.0504C56.6153 14.3652 57.0542 14.7189 57.5375 15.0628C58.0207 15.4068 58.4918 15.7216 58.9509 16.1092C59.8883 16.8589 60.7271 17.7733 61.4394 18.822C61.4797 18.8835 61.5311 18.9332 61.5897 18.9673C61.6483 19.0015 61.7125 19.0192 61.7776 19.0192C61.8427 19.0192 61.907 19.0015 61.9656 18.9673C62.0242 18.9332 62.0756 18.8835 62.1159 18.822C62.8267 17.772 63.6641 16.8559 64.6004 16.1043C65.0796 15.7168 65.5789 15.368 66.0178 15.058C66.4567 14.7479 66.948 14.3652 67.3789 14.0504C69.0621 12.8441 69.5211 10.6593 69.6419 9.69049C69.6589 9.56593 69.7118 9.45253 69.7913 9.37017C69.8708 9.2878 69.9719 9.24171 70.0768 9.23997H72.2271Z" fill="#3A3845"/>
<path d="M95.4618 19.4154C95.4618 25.0215 91.0189 29.5908 85.5541 29.5908C80.0894 29.5908 75.6465 25.0264 75.6465 19.4154C75.6465 13.8043 80.0894 9.23992 85.5541 9.23992C91.0189 9.23992 95.4618 13.8043 95.4618 19.4154ZM85.5541 12.937C81.8102 12.937 78.7651 15.8443 78.7651 19.4154C78.7651 22.9865 81.8102 25.8695 85.5541 25.8695C89.2981 25.8695 92.3473 22.9622 92.3473 19.396C92.3473 15.8297 89.2981 12.937 85.5541 12.937Z" fill="#3A3845"/>
<path d="M118.249 19.4154C118.249 25.0215 113.584 29.5908 107.846 29.5908C102.108 29.5908 97.4431 25.0264 97.4431 19.4154C97.4431 13.8043 102.108 9.23992 107.846 9.23992C113.584 9.23992 118.249 13.8043 118.249 19.4154ZM107.846 12.937C103.915 12.937 100.713 15.8443 100.713 19.4154C100.713 22.9865 103.915 25.8695 107.846 25.8695C111.777 25.8695 114.975 22.9622 114.975 19.396C114.975 15.8297 111.764 12.937 107.846 12.937Z" fill="#3A3845"/>
<path d="M135.979 19.2652V9.77292C135.979 9.70293 135.99 9.63362 136.013 9.56895C136.035 9.50428 136.068 9.44553 136.109 9.39603C136.15 9.34654 136.199 9.30728 136.253 9.28049C136.307 9.25371 136.365 9.23992 136.423 9.23992H138.611C138.67 9.23992 138.727 9.25371 138.781 9.28049C138.835 9.30728 138.884 9.34654 138.925 9.39603C138.967 9.44553 138.999 9.50428 139.022 9.56895C139.044 9.63362 139.055 9.70293 139.055 9.77292V29.0578C139.055 29.1278 139.044 29.1971 139.022 29.2618C138.999 29.3264 138.967 29.3852 138.925 29.4347C138.884 29.4842 138.835 29.5234 138.781 29.5502C138.727 29.577 138.67 29.5908 138.611 29.5908H136.443C136.385 29.5908 136.327 29.577 136.273 29.5502C136.219 29.5234 136.17 29.4842 136.129 29.4347C136.088 29.3852 136.055 29.3264 136.033 29.2618C136.011 29.1971 135.999 29.1278 135.999 29.0578V27.5412C136.001 27.0664 135.913 26.5973 135.741 26.1699C135.099 24.6097 133.439 21.7218 129.563 19.9532C127.926 19.227 126.392 18.2005 125.017 16.9103C124.952 16.8465 124.873 16.8064 124.79 16.7946C124.707 16.7828 124.622 16.7997 124.547 16.8435C124.471 16.8873 124.408 16.9561 124.364 17.0417C124.32 17.1274 124.297 17.2263 124.298 17.327V29.0578C124.298 29.1992 124.251 29.3347 124.168 29.4347C124.085 29.5346 123.972 29.5908 123.854 29.5908H121.666C121.548 29.5908 121.435 29.5346 121.352 29.4347C121.268 29.3347 121.222 29.1992 121.222 29.0578V9.77292C121.222 9.63156 121.268 9.49599 121.352 9.39603C121.435 9.29608 121.548 9.23992 121.666 9.23992H123.794C123.882 9.24203 123.968 9.27597 124.04 9.33732C124.112 9.39868 124.167 9.48461 124.197 9.58395C124.549 10.7275 126.01 14.4294 130.633 16.4936C132.306 17.2278 133.862 18.3013 135.232 19.6673C135.296 19.7341 135.375 19.7774 135.459 19.7919C135.544 19.8065 135.63 19.7917 135.707 19.7493C135.784 19.707 135.85 19.6388 135.896 19.553C135.942 19.4671 135.967 19.3672 135.967 19.2652H135.979Z" fill="#3A3845"/>
<path d="M142.028 27.5558C142.028 27.1531 142.115 26.7594 142.278 26.4246C142.442 26.0898 142.674 25.829 142.946 25.6751C143.218 25.5212 143.517 25.4812 143.805 25.5602C144.093 25.6391 144.358 25.8334 144.566 26.1185C144.774 26.4036 144.915 26.7667 144.972 27.1618C145.029 27.5569 144.999 27.9662 144.886 28.338C144.773 28.7098 144.582 29.0273 144.337 29.2503C144.092 29.4733 143.804 29.5918 143.51 29.5909C143.315 29.5909 143.122 29.5382 142.942 29.4359C142.762 29.3335 142.598 29.1835 142.461 28.9945C142.323 28.8055 142.214 28.5811 142.139 28.3342C142.065 28.0873 142.027 27.8228 142.028 27.5558Z" fill="#3A3845"/>
</svg>
