<svg width="145" height="40" viewBox="0 0 145 40" fill="none" xmlns="http://www.w3.org/2000/svg">
<mask id="path-1-inside-1_219_2705" fill="white">
<path d="M5.84373 20.7714C5.45321 20.3809 5.45321 19.7477 5.84373 19.3572L7.73146 17.4695C10.0746 15.1263 13.8736 15.1263 16.2167 17.4695L18.1045 19.3572C18.495 19.7477 18.495 20.3809 18.1045 20.7714L16.2167 22.6591C13.8736 25.0023 10.0746 25.0023 7.73146 22.6591L5.84373 20.7714Z"/>
</mask>
<path d="M5.84373 20.7714C5.45321 20.3809 5.45321 19.7477 5.84373 19.3572L7.73146 17.4695C10.0746 15.1263 13.8736 15.1263 16.2167 17.4695L18.1045 19.3572C18.495 19.7477 18.495 20.3809 18.1045 20.7714L16.2167 22.6591C13.8736 25.0023 10.0746 25.0023 7.73146 22.6591L5.84373 20.7714Z" stroke="#3A3845" stroke-width="5" mask="url(#path-1-inside-1_219_2705)"/>
<mask id="path-2-inside-2_219_2705" fill="white">
<path d="M21.9319 20.7714C21.5414 20.3809 21.5414 19.7477 21.9319 19.3572L23.8196 17.4695C26.1628 15.1263 29.9618 15.1263 32.3049 17.4695L34.1926 19.3572C34.5832 19.7477 34.5832 20.3809 34.1926 20.7714L32.3049 22.6591C29.9618 25.0023 26.1628 25.0023 23.8196 22.6591L21.9319 20.7714Z"/>
</mask>
<path d="M21.9319 20.7714C21.5414 20.3809 21.5414 19.7477 21.9319 19.3572L23.8196 17.4695C26.1628 15.1263 29.9618 15.1263 32.3049 17.4695L34.1926 19.3572C34.5832 19.7477 34.5832 20.3809 34.1926 20.7714L32.3049 22.6591C29.9618 25.0023 26.1628 25.0023 23.8196 22.6591L21.9319 20.7714Z" stroke="#3A3845" stroke-width="5" mask="url(#path-2-inside-2_219_2705)"/>
<mask id="path-3-inside-3_219_2705" fill="white">
<path d="M19.3111 5.88991C19.7016 5.49938 20.3348 5.49938 20.7253 5.88991L22.613 7.77763C24.9562 10.1208 24.9562 13.9198 22.613 16.2629L20.7253 18.1506C20.3348 18.5412 19.7016 18.5412 19.3111 18.1506L17.4234 16.2629C15.0802 13.9198 15.0802 10.1208 17.4234 7.77763L19.3111 5.88991Z"/>
</mask>
<path d="M19.3111 5.88991C19.7016 5.49938 20.3348 5.49938 20.7253 5.88991L22.613 7.77763C24.9562 10.1208 24.9562 13.9198 22.613 16.2629L20.7253 18.1506C20.3348 18.5412 19.7016 18.5412 19.3111 18.1506L17.4234 16.2629C15.0802 13.9198 15.0802 10.1208 17.4234 7.77763L19.3111 5.88991Z" stroke="#3A3845" stroke-width="5" mask="url(#path-3-inside-3_219_2705)"/>
<mask id="path-4-inside-4_219_2705" fill="white">
<path d="M19.2054 21.1788C19.5959 20.7883 20.2291 20.7883 20.6196 21.1788L22.5073 23.0666C24.8505 25.4097 24.8505 29.2087 22.5073 31.5519L20.6196 33.4396C20.2291 33.8301 19.5959 33.8301 19.2054 33.4396L17.3176 31.5519C14.9745 29.2087 14.9745 25.4097 17.3176 23.0666L19.2054 21.1788Z"/>
</mask>
<path d="M19.2054 21.1788C19.5959 20.7883 20.2291 20.7883 20.6196 21.1788L22.5073 23.0666C24.8505 25.4097 24.8505 29.2087 22.5073 31.5519L20.6196 33.4396C20.2291 33.8301 19.5959 33.8301 19.2054 33.4396L17.3176 31.5519C14.9745 29.2087 14.9745 25.4097 17.3176 23.0666L19.2054 21.1788Z" stroke="#3A3845" stroke-width="5" mask="url(#path-4-inside-4_219_2705)"/>
<path d="M39.0527 20C39.0527 20.6211 38.7879 21.1878 38.296 21.9639C38.2241 22.0774 38.1445 22.1987 38.0602 22.3273C37.6294 22.9842 37.0748 23.83 36.7901 24.7701C36.4978 25.7353 36.394 26.8122 36.3058 27.7269C36.2821 27.9733 36.2594 28.208 36.2346 28.4256C36.1053 29.5562 35.9149 30.3733 35.4696 30.9829C35.0281 31.5873 34.3054 32.0224 33.2718 32.4964C33.076 32.5862 32.8638 32.6791 32.6413 32.7766C31.803 33.1438 30.8178 33.5753 30.0087 34.1456C29.2008 34.7151 28.6036 35.5149 28.1543 36.1166C28.0799 36.2162 28.0096 36.3104 27.943 36.3972C27.4139 37.0873 27.0288 37.4723 26.5272 37.6505C25.7217 37.9366 24.8356 37.9556 23.75 37.8654C23.4486 37.8404 23.1161 37.8044 22.7643 37.7663C21.9482 37.678 21.0281 37.5784 20.1514 37.5784C19.2746 37.5784 18.3546 37.678 17.5384 37.7663C17.1866 37.8044 16.8541 37.8404 16.5527 37.8654C15.4671 37.9556 14.581 37.9366 13.7755 37.6505C13.0443 37.3907 12.4456 36.9271 11.7765 36.2913C11.6146 36.1373 11.4403 35.9642 11.2553 35.7803C10.7359 35.2642 10.132 34.6641 9.47816 34.17C8.82829 33.6789 8.05784 33.2491 7.38336 32.8729C7.15839 32.7474 6.94409 32.6278 6.74851 32.5139C5.89162 32.015 5.25293 31.5576 4.83309 30.9829C4.35038 30.322 4.08128 29.445 3.85943 28.3248C3.80122 28.0308 3.74489 27.7079 3.68585 27.3694C3.53938 26.5298 3.37627 25.5947 3.12656 24.7701C2.8728 23.932 2.4545 23.1548 2.11476 22.5235C2.02633 22.3592 1.94323 22.2048 1.86974 22.0618C1.48322 21.3096 1.25 20.6988 1.25 20C1.25 19.336 1.54841 18.594 2.05534 17.6378C2.14617 17.4665 2.24671 17.2838 2.35197 17.0925C2.76679 16.3386 3.25509 15.4512 3.5126 14.6008C3.7982 13.6576 3.90448 12.6979 3.99183 11.9091C4.01667 11.6847 4.03998 11.4742 4.06545 11.2819C4.18836 10.3535 4.36653 9.65581 4.83309 9.0171C5.23902 8.46139 5.85582 8.04444 6.71253 7.58278C6.88412 7.49031 7.07101 7.39363 7.26762 7.29193C7.96502 6.93117 8.78478 6.50711 9.47816 5.98313C10.1692 5.46093 10.796 4.80579 11.3301 4.24752C11.4964 4.0737 11.6537 3.90927 11.8012 3.76117C12.4781 3.0814 13.0677 2.60093 13.7755 2.34948C14.581 2.06331 15.4671 2.04436 16.5527 2.1345C16.8541 2.15953 17.1867 2.19553 17.5385 2.23361C18.3546 2.32197 19.2746 2.42157 20.1514 2.42157C21.0281 2.42157 21.9481 2.32197 22.7642 2.23361C23.1161 2.19552 23.4486 2.15953 23.75 2.1345C24.8356 2.04436 25.7217 2.06331 26.5272 2.34948C27.0049 2.51915 27.3854 2.91333 27.9241 3.65398C27.9874 3.74106 28.0543 3.83535 28.1249 3.93496C28.5757 4.57076 29.1805 5.42369 30.0087 6.00753C30.8538 6.60324 31.9364 7.0443 32.8346 7.4102C33.0442 7.49561 33.2438 7.57693 33.428 7.65516C34.5627 8.13713 35.1621 8.51359 35.4066 8.92192L36.479 8.27977L35.4066 8.92192C35.7585 9.50963 35.9434 10.2542 36.1163 11.2624C36.148 11.4477 36.1795 11.6432 36.2123 11.8467C36.3467 12.682 36.5029 13.6522 36.7901 14.6008C37.0476 15.4512 37.5359 16.3386 37.9508 17.0925C38.056 17.2838 38.1566 17.4665 38.2474 17.6378C38.7543 18.594 39.0527 19.336 39.0527 20Z" stroke="#3A3845" stroke-width="2.5"/>
<path d="M72.2271 9.73993C72.3449 9.73992 72.458 9.79591 72.5417 9.89571C72.6254 9.9955 72.673 10.131 72.6741 10.2728V29.5531C72.6741 29.6949 72.6275 29.8309 72.5446 29.9316C72.4616 30.0323 72.349 30.0895 72.2311 30.0908H70.0486C69.9308 30.0895 69.8181 30.0323 69.7352 29.9316C69.6522 29.8309 69.6057 29.6949 69.6057 29.5531V17.0112C69.4339 17.1791 69.2567 17.3406 69.0741 17.4956C68.5547 17.9316 68.0272 18.2998 67.5158 18.6583C67.0044 19.0168 66.6661 19.2977 66.2635 19.5835C65.5096 20.1073 64.8532 20.8119 64.3351 21.6536C63.8169 22.4952 63.4481 23.456 63.2514 24.4763C63.2294 24.595 63.1742 24.7011 63.0951 24.7769C63.016 24.8527 62.9177 24.8936 62.8165 24.8929H60.7347C60.6336 24.8936 60.5353 24.8527 60.4562 24.7769C60.3771 24.7011 60.3219 24.595 60.2998 24.4763C60.1032 23.4547 59.734 22.4928 59.2151 21.6502C58.6962 20.8077 58.0388 20.1025 57.2838 19.5787C56.8811 19.2929 56.4784 18.978 56.0315 18.6534C55.5845 18.3289 54.9925 17.9268 54.4731 17.4908C54.2905 17.339 54.1134 17.1775 53.9416 17.0064V29.5531C53.9416 29.6949 53.895 29.8309 53.8121 29.9316C53.7291 30.0323 53.6165 30.0895 53.4986 30.0908H51.3201C51.2023 30.0895 51.0896 30.0323 51.0067 29.9316C50.9237 29.8309 50.8772 29.6949 50.8772 29.5531V10.2776C50.8772 10.135 50.9243 9.99826 51.0081 9.89742C51.0919 9.79658 51.2056 9.73993 51.3242 9.73993H53.4785C53.5834 9.74167 53.6845 9.78776 53.764 9.87013C53.8435 9.9525 53.8964 10.0659 53.9134 10.1904C54.0342 11.1302 54.4932 13.3247 56.1724 14.5503C56.6153 14.8652 57.0542 15.2188 57.5375 15.5628C58.0207 15.9067 58.4918 16.2216 58.9509 16.6091C59.8883 17.3589 60.7271 18.2733 61.4394 19.3219C61.4797 19.3834 61.5311 19.4331 61.5897 19.4673C61.6483 19.5015 61.7125 19.5192 61.7776 19.5192C61.8427 19.5192 61.907 19.5015 61.9656 19.4673C62.0242 19.4331 62.0756 19.3834 62.1159 19.3219C62.8267 18.2719 63.6641 17.3559 64.6004 16.6043C65.0796 16.2167 65.5789 15.868 66.0178 15.5579C66.4567 15.2479 66.948 14.8652 67.3789 14.5503C69.0621 13.3441 69.5211 11.1593 69.6419 10.1904C69.6589 10.0659 69.7118 9.9525 69.7913 9.87013C69.8708 9.78776 69.9719 9.74167 70.0768 9.73993H72.2271Z" fill="#3A3845"/>
<path d="M95.4617 19.9153C95.4617 25.5215 91.0188 30.0908 85.554 30.0908C80.0893 30.0908 75.6464 25.5264 75.6464 19.9153C75.6464 14.3043 80.0893 9.7399 85.554 9.7399C91.0188 9.7399 95.4617 14.3043 95.4617 19.9153ZM85.554 13.437C81.81 13.437 78.765 16.3442 78.765 19.9153C78.765 23.4864 81.81 26.3695 85.554 26.3695C89.298 26.3695 92.3471 23.4622 92.3471 19.896C92.3471 16.3297 89.298 13.437 85.554 13.437Z" fill="#3A3845"/>
<path d="M118.249 19.9153C118.249 25.5215 113.584 30.0908 107.846 30.0908C102.108 30.0908 97.4432 25.5264 97.4432 19.9153C97.4432 14.3043 102.108 9.7399 107.846 9.7399C113.584 9.7399 118.249 14.3043 118.249 19.9153ZM107.846 13.437C103.915 13.437 100.714 16.3442 100.714 19.9153C100.714 23.4864 103.915 26.3695 107.846 26.3695C111.777 26.3695 114.975 23.4622 114.975 19.896C114.975 16.3297 111.765 13.437 107.846 13.437Z" fill="#3A3845"/>
<path d="M135.979 19.7651V10.2729C135.979 10.2029 135.99 10.1336 136.013 10.0689C136.035 10.0043 136.068 9.9455 136.109 9.89601C136.15 9.84652 136.199 9.80726 136.253 9.78047C136.307 9.75369 136.365 9.7399 136.423 9.7399H138.611C138.67 9.7399 138.727 9.75369 138.781 9.78047C138.835 9.80726 138.884 9.84652 138.925 9.89601C138.967 9.9455 138.999 10.0043 139.022 10.0689C139.044 10.1336 139.055 10.2029 139.055 10.2729V29.5578C139.055 29.6278 139.044 29.6971 139.022 29.7617C138.999 29.8264 138.967 29.8852 138.925 29.9347C138.884 29.9842 138.835 30.0234 138.781 30.0502C138.727 30.077 138.67 30.0908 138.611 30.0908H136.443C136.385 30.0908 136.327 30.077 136.273 30.0502C136.219 30.0234 136.17 29.9842 136.129 29.9347C136.088 29.8852 136.055 29.8264 136.033 29.7617C136.01 29.6971 135.999 29.6278 135.999 29.5578V28.0412C136.001 27.5664 135.913 27.0973 135.741 26.6699C135.099 25.1097 133.439 22.2218 129.563 20.4532C127.926 19.727 126.392 18.7005 125.017 17.4102C124.952 17.3465 124.873 17.3064 124.79 17.2946C124.707 17.2827 124.622 17.2997 124.547 17.3435C124.471 17.3873 124.408 17.456 124.364 17.5417C124.32 17.6273 124.297 17.7263 124.298 17.8269V29.5578C124.298 29.6991 124.251 29.8347 124.168 29.9347C124.085 30.0346 123.972 30.0908 123.854 30.0908H121.666C121.548 30.0908 121.435 30.0346 121.352 29.9347C121.268 29.8347 121.222 29.6991 121.222 29.5578V10.2729C121.222 10.1315 121.268 9.99597 121.352 9.89601C121.435 9.79605 121.548 9.7399 121.666 9.7399H123.794C123.882 9.74201 123.968 9.77595 124.04 9.8373C124.112 9.89865 124.167 9.98459 124.197 10.0839C124.549 11.2275 126.01 14.9294 130.633 16.9935C132.306 17.7278 133.862 18.8013 135.232 20.1673C135.296 20.2341 135.375 20.2774 135.459 20.2919C135.544 20.3064 135.629 20.2917 135.707 20.2493C135.784 20.2069 135.85 20.1388 135.896 20.053C135.942 19.9671 135.967 19.8672 135.967 19.7651H135.979Z" fill="#3A3845"/>
<path d="M142.028 28.0557C142.028 27.653 142.115 27.2594 142.278 26.9246C142.442 26.5898 142.674 26.329 142.946 26.1751C143.218 26.0212 143.517 25.9812 143.805 26.0601C144.094 26.1391 144.358 26.3334 144.566 26.6185C144.774 26.9036 144.915 27.2667 144.972 27.6618C145.029 28.0569 144.999 28.4662 144.886 28.838C144.773 29.2098 144.582 29.5273 144.337 29.7503C144.092 29.9733 143.804 30.0918 143.51 30.0908C143.315 30.0908 143.122 30.0382 142.942 29.9358C142.762 29.8335 142.598 29.6835 142.461 29.4945C142.323 29.3054 142.214 29.081 142.14 28.8342C142.065 28.5873 142.027 28.3228 142.028 28.0557Z" fill="#3A3845"/>
</svg>
